<svg xmlns="http://www.w3.org/2000/svg" viewBox="0 0 100 100" width="512" height="512"><rect width="100" height="100" rx="16" fill="#FBF8F1"></rect><g transform="translate(15 15) scale(0.7)"><path d="M89.2 54.7L89.0 55.7L88.8 56.7L88.5 57.7L88.2 58.8L87.8 59.7L87.4 60.7L87.0 61.7L86.5 62.6L86.0 63.6L85.5 64.5L85.0 65.4L84.4 66.3L83.8 67.2L83.2 68.0L82.6 68.9L81.9 69.7L81.3 70.5L80.6 71.3L79.9 72.1L79.1 72.9L78.4 73.6L77.6 74.4L76.9 75.1L76.1 75.7L75.2 76.4L74.4 77.1L73.5 77.7L72.7 78.3L71.8 78.9L70.9 79.4L70.0 79.9L69.0 80.5L68.1 80.9L67.1 81.4L66.2 81.8L65.2 82.2L64.2 82.6L63.2 82.9L62.2 83.3L61.2 83.6L60.1 83.8L59.1 84.1L58.1 84.3L57.1 84.5L56.0 84.6L55.0 84.8L53.9 84.9L52.9 84.9L51.9 85.0L50.8 85.0L49.8 85.0L48.7 85.0L47.7 84.9L46.7 84.9L45.6 84.8L44.6 84.6L43.6 84.5L42.6 84.3L41.6 84.1L40.6 83.8L39.6 83.6L38.6 83.3L37.7 83.0L36.7 82.7L35.8 82.3L34.8 81.9L33.9 81.5L33.0 81.1L32.1 80.6L31.2 80.2L30.3 79.7L29.5 79.2L28.7 78.6L27.8 78.1L27.0 77.5L26.3 76.9L25.5 76.3L24.7 75.6L24.0 75.0L23.3 74.3L22.6 73.6L22.0 72.9L21.3 72.1L20.7 71.4L20.1 70.6L19.5 69.8L19.0 69.1L18.5 68.2L18.0 67.4L17.5 66.6L17.0 65.7L16.6 64.9L16.2 64.0L15.8 63.1L15.5 62.2L15.2 61.3L14.9 60.4L14.6 59.5L14.4 58.5L14.2 57.6L14.0 56.7L13.9 55.7L13.7 54.8L13.6 53.8L13.6 52.9L13.5 51.9L13.5 51.0L13.6 50.0L13.6 49.0L13.7 48.1L13.8 47.1L14.0 46.2L14.1 45.2L14.3 44.3L14.6 43.4L14.8 42.4L15.1 41.5L15.4 40.6L15.7 39.7L16.1 38.8L16.5 37.9L16.9 37.0L17.4 36.2L17.8 35.3L18.3 34.5L18.8 33.6L19.4 32.8L20.0 32.0L20.5 31.2L21.2 30.5L21.8 29.7L22.4 29.0L23.1 28.3L23.8 27.6L24.5 26.9L25.3 26.3L26.0 25.6L26.8 25.0L27.6 24.4L28.4 23.8L29.2 23.3L30.1 22.7L30.9 22.2L31.8 21.7L32.6 21.3L33.5 20.8L34.4 20.4L35.3 20.0L36.3 19.7L37.2 19.3L38.1 19.0L39.1 18.7L40.0 18.4L41.0 18.2L41.9 18.0L42.9 17.8L43.9 17.6L44.8 17.5L45.8 17.3L46.8 17.2L47.8 17.2L48.8 17.1L49.7 17.1L50.7 17.1L51.7 17.1L52.7 17.2L53.6 17.3L54.6 17.4L55.5 17.5L56.5 17.7L57.4 17.9L58.4 18.1L59.3 18.3L60.2 18.6L61.1 19.0L61.9 19.5L62.7 20.1L63.5 20.6L64.2 21.2L65.0 21.7L65.7 22.3L66.3 22.9L67.0 23.5L67.6 24.2L68.2 24.8L68.8 25.5L69.4 26.2L69.9 26.8L70.4 27.5L70.9 28.2L71.3 29.0L71.7 29.7L72.1 30.4L72.5 31.1L72.8 31.9L73.1 32.6L73.4 33.4L73.7 34.1L73.9 34.9L74.1 35.7L74.1 35.7L73.8 35.0L73.5 34.2L73.2 33.5L72.9 32.8L72.5 32.1L72.1 31.4L71.7 30.8L71.3 30.1L70.8 29.4L70.4 28.8L69.9 28.1L69.3 27.5L68.8 26.9L68.2 26.2L67.6 25.6L67.0 25.0L66.4 24.5L65.7 23.9L65.0 23.4L64.3 22.9L63.6 22.4L62.9 21.9L62.1 21.4L61.4 20.9L60.6 20.4L59.8 20.0L58.9 19.7L58.0 19.5L57.1 19.3L56.2 19.1L55.3 19.0L54.4 19.0L53.4 19.0L52.5 19.0L51.6 19.1L50.7 19.1L49.7 19.2L48.8 19.3L47.9 19.4L47.0 19.5L46.1 19.6L45.2 19.8L44.3 20.0L43.4 20.2L42.6 20.5L41.7 20.8L40.8 21.1L40.0 21.3L39.1 21.6L38.2 21.9L37.4 22.1L36.5 22.4L35.7 22.8L34.8 23.2L34.0 23.6L33.3 24.1L32.6 24.7L31.9 25.3L31.2 25.9L30.6 26.5L30.0 27.2L29.4 27.8L28.7 28.4L28.1 29.0L27.5 29.6L26.8 30.2L26.2 30.8L25.6 31.4L25.1 32.1L24.6 32.8L24.1 33.5L23.6 34.2L23.1 34.9L22.7 35.6L22.2 36.4L21.7 37.1L21.2 37.8L20.8 38.5L20.4 39.3L20.1 40.1L19.8 40.9L19.7 41.8L19.6 42.6L19.5 43.4L19.5 44.3L19.5 45.1L19.4 45.9L19.3 46.8L19.2 47.6L19.1 48.4L18.9 49.2L18.8 50.0L18.7 50.8L18.6 51.7L18.6 52.5L18.7 53.3L18.8 54.1L18.9 54.9L19.0 55.7L19.2 56.5L19.3 57.4L19.5 58.2L19.7 59.0L19.9 59.8L20.2 60.6L20.5 61.3L20.9 62.0L21.4 62.7L21.9 63.4L22.4 64.1L23.0 64.7L23.5 65.3L23.9 66.0L24.4 66.7L24.8 67.4L25.2 68.1L25.6 68.8L26.1 69.5L26.6 70.2L27.1 70.8L27.7 71.4L28.3 72.0L29.0 72.5L29.7 73.0L30.4 73.4L31.1 73.9L31.8 74.4L32.6 74.8L33.3 75.2L34.0 75.6L34.8 76.0L35.6 76.3L36.4 76.6L37.3 76.8L38.1 77.0L38.9 77.2L39.8 77.3L40.6 77.5L41.4 77.7L42.2 78.0L43.0 78.2L43.8 78.5L44.7 78.7L45.5 78.9L46.4 79.0L47.2 79.1L48.1 79.1L48.9 79.1L49.8 78.9L50.7 78.8L51.5 78.7L52.4 78.5L53.2 78.4L54.0 78.2L54.9 78.0L55.7 77.8L56.5 77.6L57.3 77.3L58.1 77.0L58.9 76.7L59.7 76.4L60.4 76.0L61.2 75.7L61.9 75.3L62.7 75.0L63.5 74.7L64.2 74.3L65.0 74.0L65.7 73.6L66.4 73.1L67.1 72.7L67.7 72.1L68.4 71.6L68.9 71.0L69.5 70.4L70.1 69.8L70.6 69.2L71.1 68.6L71.7 68.0L72.2 67.4L72.7 66.8L73.1 66.1L73.6 65.5L74.0 64.8L74.4 64.2L74.8 63.5L75.1 62.8L75.5 62.1L75.8 61.3L76.0 60.6L76.3 59.9L76.5 59.2L76.8 58.5L77.0 57.7L77.1 57.0L77.3 56.3L77.4 55.5L77.5 54.8L77.7 54.0L77.8 53.3A5.86 5.86 0 0 1 89.2 54.7Z" fill="#2F7E63"></path><path d="M45 41L38 50L45 59M55 41L62 50L55 59" fill="none" stroke="#1B2520" stroke-width="3" stroke-linecap="round" stroke-linejoin="round"></path></g></svg>